Coordinates
version=1
nRows=12
nColumns=33
inDegrees=yes

Units are S.I. units (second, meters, Newtons, ...)
Angles are in degrees.

endheader
time	ground_thorax_rot_x	ground_thorax_rot_y	ground_thorax_rot_z	ground_thorax_tx	ground_thorax_ty	ground_thorax_tz	clav_prot_r	clav_elev_r	scapula_abduction_r	scapula_elevation_r	scapula_upward_rot_r	scapula_winging_r	shoulder_elv_r	plane_of_elev_r	axial_rot_r	elbow_flexion_r	pro_sup_r	wrist_flex_r	wrist_dev_r	clav_prot_l	clav_elev_l	scapula_abduction_l	scapula_elevation_l	scapula_upward_rot_l	scapula_winging_l	shoulder_elv_l	plane_of_elev_l	axial_rot_l	elbow_flexion_l	pro_sup_l	wrist_flex_l	wrist_dev_l
      5.33000000	     -3.23436553	      2.10231354	     11.99207550	     -0.10432120	      1.02692479	      0.01186432	     14.64922215	    -11.90645969	     32.84791565	     -9.69355345	     13.95775348	     -9.25654414	    -15.50247360	    -59.43523057	    114.82095580	    -61.62331895	   -164.05064298	      7.66148097	     -0.37273212	     18.74796098	     -9.03048772	    -27.28105044	    -10.89667378	    -31.02789552	      6.42900297	     61.59605809	     -8.42880477	     15.21309530	     41.81971170	     15.86116287	     16.09403776	    -12.86461034
      5.34000000	     -3.28282820	      2.08098809	     12.01047946	     -0.10498932	      1.02744540	      0.01200296	     14.55217688	    -12.46185363	     32.11536566	     -9.87931708	     13.04187647	     -8.68386742	    -16.14487637	    -60.02958888	    114.18641783	    -63.18614480	   -165.18770178	      8.32888323	     -1.01410045	     18.49367735	     -9.02608876	    -26.86786269	    -11.02939164	    -31.27264719	      6.17974450	     61.92597792	     -9.49266435	     14.51231222	     43.29609428	     14.45164895	     15.82977801	    -12.58578124
      5.35000000	     -3.08188559	      1.95195734	     12.13849372	     -0.10552042	      1.02724934	      0.01207617	     14.31082427	    -12.17397746	     31.49606538	     -9.50311051	     12.64674570	     -8.58566394	    -16.73825992	    -60.59694892	    114.25519460	    -64.47487793	   -165.35310619	      8.69299011	     -1.11970551	     18.26063843	     -8.70882527	    -26.52494989	    -11.51330852	    -31.67107539	      5.99034759	     61.62726123	     -9.90191644	     14.72128638	     44.62191784	     14.05855387	     15.71801275	    -12.73427936
      5.36000000	     -3.00170296	      1.84035642	     12.34345455	     -0.10620051	      1.02718875	      0.01228377	     14.14517686	    -12.13081537	     30.83654349	     -9.24993311	     11.99293808	     -8.35212918	    -17.44306977	    -61.17785449	    114.12218019	    -65.87918824	   -165.66899194	      9.21170474	     -1.42196177	     18.02343899	     -8.47775857	    -26.16667662	    -11.90122836	    -32.02746254	      5.78304588	     61.56248559	    -10.65287733	     14.52951719	     45.95399629	     13.47157126	     15.57591623	    -12.80130499
      5.37000000	     -3.00804186	      1.82571758	     12.25227652	     -0.10661725	      1.02785887	      0.01228164	     13.89078086	    -12.70837534	     29.95997507	     -9.50702906	     11.23997413	     -7.68522792	    -18.18633312	    -61.93947626	    113.39292038	    -67.29877795	   -166.45055892	     10.15922774	     -2.28540317	     17.65916021	     -8.41630138	    -25.55321649	    -12.00155360	    -32.08251003	      5.45894805	     61.75618542	    -11.70085154	     13.81276031	     47.45463401	     12.16392502	     15.19080537	    -12.56458796
      5.38000000	     -2.78583183	      1.70285812	     12.12278957	     -0.10714748	      1.02770959	      0.01248779	     13.68211918	    -12.34360268	     29.43605577	     -9.07782167	     10.90965530	     -7.66768016	    -18.62388643	    -62.31145524	    113.40028943	    -68.60603536	   -166.48756506	     10.49859022	     -2.36208134	     17.45957911	     -8.10761961	    -25.26020829	    -12.44208735	    -32.40427534	      5.29818482	     61.52212997	    -12.02614126	     14.10354920	     48.74800634	     11.93638635	     15.10137485	    -12.77312315
      5.39000000	     -2.76759559	      1.62397637	     12.42914649	     -0.10768000	      1.02809646	      0.01252286	     13.44093540	    -12.68058671	     28.54444696	     -9.08897128	     10.07033435	     -7.12978441	    -19.60637055	    -63.19701626	    112.86421156	    -69.86783212	   -166.82566939	     11.55925279	     -3.20056657	     17.06496045	     -7.98005644	    -24.60861257	    -12.65990117	    -32.57733007	      4.94649183	     61.52261826	    -13.21913952	     13.43056653	     50.20614067	     11.11483491	     14.65177200	    -12.74069540
      5.40000000	     -2.56842561	      1.45905520	     12.57170359	     -0.10824962	      1.02794113	      0.01261378	     13.20977352	    -12.36769796	     27.93408636	     -8.67206676	      9.65455320	     -7.04901468	    -20.24566054	    -63.84016127	    112.90979583	    -71.03307747	   -166.84077311	     11.98474101	     -3.34649117	     16.81664219	     -7.65285306	    -24.24036521	    -13.16195366	    -32.98400158	      4.73137633	     61.20016510	    -13.74391776	     13.59683640	     51.55877959	     10.86353722	     14.51927692	    -12.94955134
      5.41000000	     -2.51488459	      1.38289566	     12.58501909	     -0.10867791	      1.02849946	      0.01271038	     12.98310274	    -12.70569629	     27.14964049	     -8.72471112	      8.94582896	     -6.55444443	    -21.18585488	    -64.61272254	    112.17195389	    -72.21317427	   -166.89455869	     13.31868174	     -4.38337904	     16.39753676	     -7.54098860	    -23.52614557	    -13.29657576	    -33.00705903	      4.36877762	     61.25698348	    -14.87623466	     12.95830327	     52.99837121	     10.35809535	     13.96209221	    -13.07149315
      5.42000000	     -2.31498619	      1.20342029	     12.72011943	     -0.10921663	      1.02840112	      0.01280295	     12.74795130	    -12.36127448	     26.53807549	     -8.27794547	      8.53667004	     -6.48438883	    -21.85289022	    -65.22451062	    112.19591567	    -73.28119336	   -166.85378133	     13.77413946	     -4.55458153	     16.13571662	     -7.19872775	    -23.13381245	    -13.81259438	    -33.40881095	      4.13893637	     60.92283442	    -15.43554346	     13.12094389	     54.32798719	     10.16872493	     13.81895162	    -13.30862068
      5.43000000	     -2.23751686	      1.11072130	     12.71534772	     -0.10957938	      1.02896174	      0.01288579	     12.51716546	    -12.60954435	     25.79727531	     -8.27378302	      7.90220625	     -6.05339465	    -22.92839976	    -65.96721390	    111.35751749	    -74.27551436	   -166.57480401	     15.44452445	     -5.80552929	     15.67404462	     -7.04188387	    -22.33512638	    -13.95830471	    -33.36273523	      3.75012918	     60.93393345	    -16.57722821	     12.44686880	     55.69114268	      9.95709765	     13.17167821	    -13.63015482
      5.44000000	     -2.05486326	      0.90832431	     12.82825804	     -0.11011133	      1.02889274	      0.01295997	     12.28971077	    -12.23591354	     25.21131651	     -7.80447400	      7.51381537	     -6.00148472	    -23.60097279	    -66.56165803	    111.38627882	    -75.22890911	   -166.47749595	     15.90728380	     -5.98347599	     15.41507868	     -6.68715684	    -21.94744452	    -14.48698973	    -33.76237925	      3.52202319	     60.59778920	    -17.16350446	     12.62021710	     56.97189143	      9.81916061	     13.02953012	    -13.89486892
